<?xml version="1.0" encoding="UTF-8"?>
<svg width="250px" height="250px" viewBox="0 0 250 250" version="1.1" xmlns="http://www.w3.org/2000/svg" xmlns:xlink="http://www.w3.org/1999/xlink">
    <!-- Generator: Sketch 52.5 (67469) - http://www.bohemiancoding.com/sketch -->
    <title>White on black</title>
    <desc>Created with Sketch.</desc>
    <g id="White-on-black" stroke="none" stroke-width="1" fill="none" fill-rule="evenodd">
        <rect fill="#000000" x="0" y="0" width="250" height="250"></rect>
        <g id="Group-2" transform="translate(15.000000, 40.000000)" fill="#FFFFFF">
            <g id="Group">
                <path d="M215.891058,146.479617 C213.647056,146.479617 211.825837,148.307213 211.825837,150.559072 L211.825837,162.797436 L159.102627,162.797436 L158.999641,155.06279 C181.678156,139.103963 195.185531,113.142314 195.185531,85.2877979 C195.185531,38.2652843 157.053755,8.09359937e-15 110.195305,8.09359937e-15 C63.3368546,8.09359937e-15 25.2050791,38.2652843 25.2050791,85.2877979 C25.2050791,113.011772 38.6961935,139.082206 61.2879831,155.041033 C61.3259252,155.06279 61.3476063,155.06279 61.3909687,155.084547 L61.2879831,162.797436 L8.56477344,162.797436 L8.56477344,150.559072 C8.56477344,148.307213 6.74355432,146.479617 4.49955218,146.479617 C2.25555004,146.479617 0.434330917,148.307213 0.434330917,150.559072 L0.434330917,170.956345 L69.3100197,170.956345 L69.5430924,153.256951 C69.5647736,151.516384 68.4861349,150.04778 66.9792929,149.433142 C66.7082781,149.030636 66.3884807,148.644448 65.9656977,148.350727 C45.5311855,133.920336 33.3355217,110.357406 33.3355217,85.2660409 C33.3355217,42.7309273 67.808598,8.13715215 110.195305,8.13715215 C152.582012,8.13715215 187.055088,42.7309273 187.055088,85.2660409 C187.055088,110.933969 174.41496,134.812377 153.221607,149.177497 C152.815085,149.433142 152.522389,149.792134 152.245954,150.156566 C151.378707,150.918064 150.804155,152.000479 150.825836,153.235194 L151.058909,170.934588 L219.956279,170.956345 L219.956279,150.559072 C219.956279,148.307213 218.13506,146.479617 215.891058,146.479617 Z" id="Page-1"></path>
                <g id="Page-1" transform="translate(48.816276, 15.974455)">
                    <path d="M112.763657,75.2139223 C111.127617,73.1757494 109.307754,71.1375765 107.344915,69.107589 C109.307754,67.0776016 111.119447,65.0312432 112.763657,63.0012557 C121.818041,51.7544703 124.626473,41.7927979 120.678329,34.9436365 C117.677902,29.7397472 111.174595,26.9894416 101.881238,26.9894416 C96.7014685,26.9894416 90.7904851,27.8530048 84.4628327,29.4512107 C79.4525901,11.9937277 71.1641414,0.769452137 61.6134303,0.769452137 C52.0545492,0.769452137 43.7722281,11.9937277 38.7619855,29.4512107 C32.4282055,27.8530048 26.5233497,26.9894416 21.3374525,26.9894416 C12.0338834,26.9894416 5.54078869,29.7397472 2.54036212,34.9436365 C-1.40982507,41.7927979 1.40677686,51.7606094 10.455034,63.0012557 C12.0992432,65.0394286 13.9170646,67.085787 15.8880732,69.1321453 C3.30629811,82.2001897 -2.23907843,94.9899294 2.53219214,103.279727 C5.53261871,108.483616 12.0257134,111.233922 21.3292825,111.233922 C26.5070097,111.233922 32.4200355,110.370359 38.7538155,108.772153 C43.7579306,126.229636 52.0463792,137.451865 61.5970904,137.451865 C71.1559715,137.451865 79.4362501,126.229636 84.4464927,108.772153 C90.7823152,110.370359 96.695341,111.233922 101.873068,111.233922 C111.166425,111.233922 117.669732,108.483616 120.670159,103.279727 C124.626473,96.4305656 121.818041,86.4607078 112.763657,75.2139223 Z M101.881238,32.0725957 C107.026286,32.0725957 113.705247,33.0077815 116.280835,37.4852135 C119.066799,42.3125729 116.338025,50.45094 108.81347,59.8027976 C107.273428,61.7140963 105.574071,63.6233487 103.73174,65.5428328 C99.3199483,61.3784936 94.2851957,57.2939623 88.7867966,53.391557 C88.1577079,46.5812764 87.1201199,40.1864066 85.7393926,34.3604244 C91.6197385,32.8727218 97.1017977,32.0725957 101.881238,32.0725957 Z M73.0146428,88.8999669 C69.2237703,91.0895704 65.4022603,93.0970479 61.6134303,94.9101214 C57.8143878,93.0888625 54.0010479,91.0895704 50.2040479,88.8917815 C46.4050054,86.6939926 42.7509801,84.3836541 39.2807795,82.001693 C38.9703201,77.88442 38.8028354,73.5850211 38.8028354,69.0994036 C38.8028354,64.607647 38.9784901,60.2980164 39.2807795,56.1827897 C42.6876627,53.8560803 46.3253481,51.5539272 50.2040479,49.3070257 C54.0010479,47.1092368 57.8143878,45.1099447 61.6134303,43.2968712 C65.4104303,45.1099447 69.2237703,47.1174223 73.0228128,49.3070257 C76.8198128,51.5048146 80.473838,53.8151531 83.9522087,56.1971142 C84.2647105,60.3143872 84.4321952,64.6158325 84.4321952,69.0994036 C84.4321952,73.5850211 84.2647105,77.88442 83.9522087,82.001693 C80.4656681,84.4000249 76.8116428,86.7021781 73.0146428,88.8999669 Z M83.3149499,88.5398079 C82.7164986,93.5595249 81.9015427,98.2354537 80.9048047,102.520528 C76.6053507,101.210859 72.1363695,99.5799111 67.5897735,97.6297316 C70.2531882,96.2689033 72.9104755,94.8384989 75.5514228,93.3037301 C78.20871,91.7689613 80.8006374,90.1789409 83.3149499,88.5398079 Z M55.6370871,97.6358707 C51.0884486,99.5799111 46.62151,101.216998 42.3200135,102.528714 C41.3232754,98.2436391 40.5103621,93.5677103 39.9119107,88.5479933 C42.4241808,90.1789409 45.0099807,91.7771468 47.6672679,93.3119155 C50.3082152,94.8384989 52.9716299,96.2770888 55.6370871,97.6358707 Z M33.9600775,78.1811419 C30.0180603,75.2139223 26.364035,72.1607557 23.077659,69.0666619 C26.2843777,66.0626078 29.913893,63.0155802 33.9600775,59.9869699 C33.8007628,62.9603286 33.7129355,65.9971244 33.7129355,69.0994036 C33.719063,72.1934974 33.8068903,75.2139223 33.9600775,78.1811419 Z M39.9037408,49.6753702 C40.5021921,44.6556532 41.3151055,39.9797244 42.313886,35.69465 C46.61334,36.9981803 51.0802787,38.6352669 55.6289172,40.5793074 C52.9634599,41.9380893 50.3082152,43.3766792 47.6590979,44.9032625 C44.9854707,46.4544022 42.3996708,48.052608 39.9037408,49.6753702 Z M67.5897735,40.5793074 C72.1363695,38.6352669 76.6053507,36.9981803 80.9048047,35.6864646 C81.8933727,39.9715389 82.7164986,44.6474677 83.3149499,49.6671848 C80.8006374,48.0362372 78.21688,46.4380313 75.5595928,44.9032625 C72.9104755,43.3766792 70.2450183,41.9380893 67.5897735,40.5793074 Z M89.2667832,60.0340361 C93.1924604,62.9930703 96.8301457,66.0298661 100.108352,69.107589 C96.8301457,72.185312 93.1924604,75.2302932 89.2667832,78.1811419 C89.4179279,75.2139223 89.5057552,72.1934974 89.5057552,69.107589 C89.5057552,66.0216807 89.4179279,63.0012557 89.2667832,60.0340361 Z M61.6134303,5.86283806 C68.2597122,5.86283806 75.1919435,15.1267023 79.6445847,30.7854363 C73.8438961,32.5371191 67.7633857,34.8638285 61.6134303,37.6918957 C55.4614325,34.8638285 49.380922,32.5371191 43.582276,30.7854363 C48.0328747,15.1267023 54.9589785,5.86283806 61.6134303,5.86283806 Z M6.93581343,37.4852135 C9.51344333,33.0159669 16.1903626,32.0725957 21.3374525,32.0725957 C26.116893,32.0725957 31.5969097,32.8727218 37.4772555,34.3604244 C36.0985708,40.1782211 35.0691528,46.573091 34.4298516,53.391557 C28.8538376,57.349214 23.843595,61.4419307 19.4951211,65.5510182 C17.6425773,63.6315341 15.9432206,61.7140963 14.4031787,59.8027976 C6.88066604,50.45094 4.16006142,42.3125729 6.93581343,37.4852135 Z M21.3374525,106.142582 C16.1903626,106.142582 9.51344333,105.207397 6.93581343,100.73815 C3.61675749,94.9674194 8.15722602,84.3345415 19.4542712,72.6416499 C23.8824024,76.8141746 28.925325,80.9212158 34.4380216,84.8318066 C35.0691528,91.6420871 36.1046983,98.0369569 37.4854255,103.862939 C31.5969097,105.334271 26.116893,106.142582 21.3374525,106.142582 Z M61.6134303,132.35234 C54.9671485,132.35234 48.0328747,123.088476 43.582276,107.435881 C49.380922,105.686244 55.4614325,103.359535 61.6134303,100.529421 C67.7633857,103.359535 73.8438961,105.686244 79.6445847,107.429742 C75.1837735,123.088476 68.2597122,132.35234 61.6134303,132.35234 Z M116.280835,100.729965 C113.705247,105.199211 107.026286,106.142582 101.881238,106.142582 C97.1017977,106.142582 91.6197385,105.342456 85.7393926,103.854754 C87.1201199,98.0287715 88.1495379,91.6339017 88.7867966,84.8236211 C94.2851957,80.9212158 99.3199483,76.8284991 103.73174,72.6723453 C105.574071,74.583644 107.273428,76.5010817 108.81347,78.4123804 C116.346195,87.7642381 119.066799,95.9026052 116.280835,100.729965 Z" id="Fill-1"></path>
                    <path d="M61.6134303,49.771549 C50.9699839,49.771549 42.313886,58.4440157 42.313886,69.107589 C42.313886,79.7711624 50.9699839,88.4518145 61.6134303,88.4518145 C72.2568768,88.4518145 80.9129747,79.7793478 80.9129747,69.107589 C80.9129747,58.4440157 72.2568768,49.771549 61.6134303,49.771549 Z M61.6134303,83.3604749 C53.7702458,83.3604749 47.387446,76.9656051 47.387446,69.107589 C47.387446,61.249573 53.7702458,54.8547032 61.6134303,54.8547032 C69.4566148,54.8547032 75.8394147,61.249573 75.8394147,69.107589 C75.8312447,76.9656051 69.4566148,83.3604749 61.6134303,83.3604749 Z" id="Fill-2"></path>
                </g>
            </g>
        </g>
    </g>
</svg>