<?xml version="1.0" encoding="UTF-8" standalone="no"?>
<svg
   xmlns:dc="http://purl.org/dc/elements/1.1/"
   xmlns:cc="http://creativecommons.org/ns#"
   xmlns:rdf="http://www.w3.org/1999/02/22-rdf-syntax-ns#"
   xmlns:svg="http://www.w3.org/2000/svg"
   xmlns="http://www.w3.org/2000/svg"
   xmlns:sodipodi="http://sodipodi.sourceforge.net/DTD/sodipodi-0.dtd"
   xmlns:inkscape="http://www.inkscape.org/namespaces/inkscape"
   inkscape:export-ydpi="288"
   inkscape:export-xdpi="288"
   inkscape:export-filename="/home/jack/repos/assets/logo/circle/white on blue@3x.png"
   inkscape:version="1.0 (1.0+r73+1)"
   sodipodi:docname="white on blue.svg"
   id="svg16"
   version="1.1"
   viewBox="0 0 500 500"
   height="500"
   width="500">
  <metadata
     id="metadata22">
    <rdf:RDF>
      <cc:Work
         rdf:about="">
        <dc:format>image/svg+xml</dc:format>
        <dc:type
           rdf:resource="http://purl.org/dc/dcmitype/StillImage" />
      </cc:Work>
    </rdf:RDF>
  </metadata>
  <defs
     id="defs20" />
  <sodipodi:namedview
     inkscape:current-layer="svg16"
     inkscape:window-maximized="0"
     inkscape:window-y="27"
     inkscape:window-x="72"
     inkscape:cy="181.33304"
     inkscape:cx="-65.124025"
     inkscape:zoom="0.70710678"
     showgrid="false"
     id="namedview18"
     inkscape:window-height="2096"
     inkscape:window-width="1884"
     inkscape:pageshadow="2"
     inkscape:pageopacity="0"
     guidetolerance="10"
     gridtolerance="10"
     objecttolerance="10"
     borderopacity="1"
     bordercolor="#666666"
     pagecolor="#ffffff" />
  <!-- Generator: Sketch 52.5 (67469) - http://www.bohemiancoding.com/sketch -->
  <title
     id="title2">Black on white</title>
  <circle
     r="250"
     cy="250"
     cx="250"
     id="path872"
     style="fill:#1a2954;stroke-width:10.4778;fill-opacity:1" />
  <desc
     id="desc4">Created with Sketch.</desc>
  <g
     id="Group-2"
     transform="matrix(1.7394308,0,0,1.7394308,58.180519,90.899653)"
     fill="#000000"
     style="fill-rule:evenodd;stroke:none;stroke-width:1;fill:#ffffff">
    <g
       style="fill:#ffffff"
       id="Group">
      <path
         style="fill:#ffffff"
         d="m 215.89106,146.47962 c -2.244,0 -4.06522,1.82759 -4.06522,4.07945 v 12.23837 h -52.72321 l -0.10299,-7.73465 C 181.67816,139.10396 195.18553,113.14231 195.18553,85.287798 195.18553,38.265284 157.05375,0 110.19531,0 63.336855,0 25.205079,38.265284 25.205079,85.287798 c 0,27.723972 13.491114,53.794412 36.082904,69.753232 0.03794,0.0218 0.05962,0.0218 0.102986,0.0435 l -0.102986,7.71289 H 8.5647734 v -12.23837 c 0,-2.25186 -1.8212191,-4.07945 -4.0652212,-4.07945 -2.2440022,0 -4.06522128,1.82759 -4.06522128,4.07945 v 20.39727 H 69.31002 l 0.233072,-17.69939 c 0.02168,-1.74057 -1.056957,-3.20917 -2.563799,-3.82381 -0.271015,-0.4025 -0.590812,-0.78869 -1.013595,-1.08241 -20.434513,-14.43039 -32.630176,-37.99332 -32.630176,-63.084689 0,-42.535114 34.473076,-77.1288888 76.859788,-77.1288888 42.3867,0 76.85978,34.5937748 76.85978,77.1288888 0,25.667929 -12.64013,49.546339 -33.83348,63.911459 -0.40653,0.25564 -0.69922,0.61463 -0.97566,0.97907 -0.86724,0.76149 -1.4418,1.84391 -1.42011,3.07862 l 0.23307,17.6994 68.89737,0.0218 V 150.5591 c 0,-2.25186 -1.82122,-4.07945 -4.06522,-4.07945 z"
         id="Page-1" />
      <g
         style="fill:#ffffff"
         id="g11"
         transform="translate(48.816276,15.974455)">
        <path
           style="fill:#ffffff"
           d="m 112.76366,75.213922 c -1.63604,-2.038173 -3.45591,-4.076346 -5.41874,-6.106333 1.96283,-2.029987 3.77453,-4.076346 5.41874,-6.106333 9.05438,-11.246786 11.86281,-21.208458 7.91467,-28.05762 -3.00043,-5.203889 -9.50374,-7.954194 -18.79709,-7.954194 -5.179771,0 -11.090755,0.863563 -17.418407,2.461769 C 79.45259,11.993728 71.164141,0.76945214 61.61343,0.76945214 c -9.558881,0 -17.841202,11.22427586 -22.851444,28.68175886 -6.333781,-1.598206 -12.238636,-2.461769 -17.424533,-2.461769 -9.30357,0 -15.7966643,2.750305 -18.7970909,7.954194 -3.9501872,6.849162 -1.1335852,16.816973 7.9146719,28.05762 1.644209,2.038173 3.462031,4.084531 5.433039,6.130889 C 3.3062981,82.20019 -2.2390784,94.989929 2.5321921,103.27973 c 3.0004266,5.20389 9.4935209,7.95419 18.7970909,7.95419 5.177727,0 11.090752,-0.86356 17.424533,-2.46177 5.004115,17.45749 13.292563,28.67971 22.843274,28.67971 9.558882,0 17.83916,-11.22222 22.849403,-28.67971 6.335822,1.59821 12.248848,2.46177 17.426577,2.46177 9.29336,0 15.79666,-2.7503 18.79709,-7.95419 3.95631,-6.849164 1.14788,-16.819022 -7.9065,-28.065808 z M 101.88124,32.072596 c 5.14505,0 11.82401,0.935185 14.39959,5.412617 2.78597,4.82736 0.0572,12.965727 -7.46736,22.317585 -1.54004,1.911298 -3.2394,3.820551 -5.08173,5.740035 C 99.319948,61.378494 94.285196,57.293962 88.786797,53.391557 88.157708,46.581276 87.12012,40.186407 85.739393,34.360424 91.619738,32.872722 97.101798,32.072596 101.88124,32.072596 Z M 73.014643,88.899967 C 69.22377,91.08957 65.40226,93.097048 61.61343,94.910121 57.814388,93.088863 54.001048,91.08957 50.204048,88.891781 46.405005,86.693993 42.75098,84.383654 39.28078,82.001693 38.97032,77.88442 38.802835,73.585021 38.802835,69.099404 c 0,-4.491757 0.175655,-8.801388 0.477945,-12.916614 3.406883,-2.32671 7.044568,-4.628863 10.923268,-6.875764 3.797,-2.197789 7.61034,-4.197081 11.409382,-6.010155 3.797,1.813074 7.61034,3.820551 11.409383,6.010155 3.797,2.197789 7.451025,4.508127 10.929396,6.890088 0.312502,4.117273 0.479986,8.418718 0.479986,12.90229 0,4.485617 -0.167484,8.785016 -0.479986,12.902289 -3.486541,2.398332 -7.140566,4.700485 -10.937566,6.898274 z M 83.31495,88.539808 c -0.598451,5.019717 -1.413407,9.695646 -2.410145,13.980722 -4.299454,-1.30967 -8.768436,-2.940619 -13.315031,-4.890798 2.663414,-1.360829 5.320702,-2.791233 7.961649,-4.326002 2.657287,-1.534769 5.249214,-3.124789 7.763527,-4.763922 z m -27.677863,9.096063 c -4.548638,1.94404 -9.015577,3.581129 -13.317073,4.892839 -0.996739,-4.285071 -1.809652,-8.961 -2.408103,-13.980717 2.51227,1.630948 5.09807,3.229154 7.755357,4.763922 2.640947,1.526584 5.304362,2.965174 7.969819,4.323956 z M 33.960077,78.181142 c -3.942017,-2.96722 -7.596042,-6.020386 -10.882418,-9.11448 3.206719,-3.004054 6.836234,-6.051082 10.882418,-9.079692 -0.159314,2.973359 -0.247142,6.010154 -0.247142,9.112434 0.0061,3.094093 0.09396,6.114518 0.247142,9.081738 z M 39.903741,49.67537 c 0.598451,-5.019717 1.411365,-9.695646 2.410145,-13.98072 4.299454,1.30353 8.766393,2.940617 13.315031,4.884657 -2.665457,1.358782 -5.320702,2.797372 -7.969819,4.323955 -2.673627,1.55114 -5.259427,3.149346 -7.755357,4.772108 z m 27.686033,-9.096063 c 4.546595,-1.94404 9.015577,-3.581127 13.315031,-4.892842 0.988568,4.285074 1.811694,8.961003 2.410145,13.98072 -2.514313,-1.630948 -5.09807,-3.229154 -7.755357,-4.763923 -2.649117,-1.526583 -5.314575,-2.965173 -7.969819,-4.323955 z m 21.677009,19.454729 c 3.925677,2.959034 7.563363,5.99583 10.841567,9.073553 -3.278204,3.077723 -6.91589,6.122704 -10.841567,9.073553 0.151145,-2.96722 0.238972,-5.987645 0.238972,-9.073553 0,-3.085908 -0.08783,-6.106333 -0.238972,-9.073553 z M 61.61343,5.8628381 c 6.646282,0 13.578513,9.2638639 18.031155,24.9225979 -5.800689,1.751683 -11.881199,4.078392 -18.031155,6.90646 C 55.461432,34.863828 49.380922,32.537119 43.582276,30.785436 48.032875,15.126702 54.958978,5.8628381 61.61343,5.8628381 Z M 6.9358134,37.485213 c 2.5776299,-4.469246 9.2545496,-5.412617 14.4016396,-5.412617 4.77944,0 10.259457,0.800126 16.139802,2.287828 -1.378684,5.817797 -2.408102,12.212667 -3.047403,19.031133 -5.576014,3.957657 -10.586257,8.050374 -14.934731,12.159461 -1.852544,-1.919484 -3.5519,-3.836922 -5.091942,-5.74822 C 6.880666,50.45094 4.1600614,42.312573 6.9358134,37.485213 Z M 21.337453,106.14258 c -5.14709,0 -11.8240097,-0.93518 -14.4016396,-5.40443 -3.3190559,-5.770731 1.2214126,-16.403609 12.5184576,-28.0965 4.428131,4.172525 9.471054,8.279566 14.983751,12.190157 0.631131,6.81028 1.666676,13.20515 3.047403,19.031133 -5.888515,1.47133 -11.368532,2.27964 -16.147972,2.27964 z m 40.275977,26.20976 c -6.646282,0 -13.580555,-9.26386 -18.031154,-24.91646 5.798646,-1.74964 11.879156,-4.07635 18.031154,-6.90646 6.149956,2.83011 12.230466,5.15682 18.031155,6.90032 -4.460812,15.65874 -11.384873,24.9226 -18.031155,24.9226 z m 54.6674,-31.62237 c -2.57558,4.46924 -9.25454,5.41261 -14.39959,5.41261 -4.779442,0 -10.261502,-0.80012 -16.141847,-2.28783 1.380727,-5.825978 2.410145,-12.220848 3.047404,-19.031129 5.498399,-3.902405 10.533151,-7.995122 14.944943,-12.151276 1.84233,1.911299 3.54169,3.828737 5.08173,5.740035 7.53272,9.351858 10.25333,17.490225 7.46736,22.31759 z"
           id="Fill-1" />
        <path
           style="fill:#ffffff"
           d="m 61.61343,49.771549 c -10.643446,0 -19.299544,8.672467 -19.299544,19.33604 0,10.663573 8.656098,19.344225 19.299544,19.344225 10.643447,0 19.299545,-8.672466 19.299545,-19.344225 0,-10.663573 -8.656098,-19.33604 -19.299545,-19.33604 z m 0,33.588926 c -7.843184,0 -14.225984,-6.39487 -14.225984,-14.252886 0,-7.858016 6.3828,-14.252886 14.225984,-14.252886 7.843185,0 14.225985,6.39487 14.225985,14.252886 -0.0082,7.858016 -6.3828,14.252886 -14.225985,14.252886 z"
           id="Fill-2" />
      </g>
    </g>
  </g>
</svg>
