<?xml version="1.0" encoding="UTF-8"?>
<svg width="633px" height="664px" viewBox="0 0 633 664" version="1.1" xmlns="http://www.w3.org/2000/svg" xmlns:xlink="http://www.w3.org/1999/xlink">
    <title>Tree/transparent-bg</title>
    <defs>
        <polygon id="path-1" points="0.0386 0.492 8.4166 0.492 8.4166 8.8706 0.0386 8.8706"></polygon>
    </defs>
    <g id="Tree/transparent-bg" stroke="none" stroke-width="1" fill="none" fill-rule="evenodd">
        <g id="Group-278">
            <polyline id="Stroke-1" stroke="#172429" stroke-width="2" points="594.1378 229.6032 530.5078 229.3412 499.0868 260.7662 419.4858 260.7662 361.3538 318.8982 361.3538 512.6752 386.4918 544.6232"></polyline>
            <polyline id="Stroke-2" stroke="#172429" stroke-width="2" points="134.8526 310.2575 155.5396 289.5705 208.4336 289.5705 239.3316 320.4695 239.3316 527.8625 224.1436 545.4075"></polyline>
            <polyline id="Stroke-3" stroke="#172429" stroke-width="2" points="110.501 289.57 44.515 289.57 29.327 305.281"></polyline>
            <polyline id="Stroke-4" stroke="#172429" stroke-width="2" points="4.713 229.3415 57.083 229.3415 82.222 254.4805 132.496 254.4805"></polyline>
            <polyline id="Stroke-5" stroke="#172429" stroke-width="2" points="166.0137 254.4811 208.9567 254.4811 243.5207 289.0461"></polyline>
            <polyline id="Stroke-6" stroke="#172429" stroke-width="2" points="145.0655 188.4919 170.2035 222.5339 231.4765 222.5339 269.7055 260.7649 269.7055 522.6259 254.5185 545.4079"></polyline>
            <polyline id="Stroke-7" stroke="#172429" stroke-width="2" points="19.9005 158.6403 51.3235 158.6403 74.8895 182.2063 97.4095 182.2063 129.6165 214.4153"></polyline>
            <polyline id="Stroke-8" stroke="#172429" stroke-width="2" points="60.7491 117.7888 94.2671 117.7888 115.7381 139.2628 148.7301 139.2628 197.6971 188.2288"></polyline>
            <polyline id="Stroke-9" stroke="#172429" stroke-width="2" points="93.2188 64.3688 179.1068 64.3688 216.8118 102.0778 216.8118 146.0688 245.6158 174.8748"></polyline>
            <polyline id="Stroke-10" stroke="#172429" stroke-width="2" points="145.5889 20.3767 193.7699 20.3767 217.8599 44.4677"></polyline>
            <line x1="248.2344" y1="64.3688" x2="248.2344" y2="123.0258" id="Stroke-11" stroke="#172429" stroke-width="2"></line>
            <polyline id="Stroke-12" stroke="#172429" stroke-width="2" points="270.2305 142.9274 270.2305 201.5844 299.5575 226.7234 299.5575 512.6754 328.6225 548.1944"></polyline>
            <polyline id="Stroke-13" stroke="#172429" stroke-width="2" points="255.0421 7.2839 286.4651 38.7069 286.4651 100.5059 310.5551 124.5969"></polyline>
            <polyline id="Stroke-14" stroke="#172429" stroke-width="2" points="370.7794 20.3767 328.8834 62.2747 328.8834 141.8797"></polyline>
            <polyline id="Stroke-15" stroke="#172429" stroke-width="2" points="400.1065 44.4684 400.1065 104.1734 371.3035 132.9774 371.3035 161.7814 332.8115 200.2754 332.8115 229.8644"></polyline>
            <polyline id="Stroke-16" stroke="#172429" stroke-width="2" points="330.9786 257.0993 374.9686 213.1073 450.3816 213.1073 489.6616 173.8273"></polyline>
            <polyline id="Stroke-17" stroke="#172429" stroke-width="2" points="451.4307 165.9724 478.1377 139.2624 543.6007 139.2624 583.6637 99.1974"></polyline>
            <polyline id="Stroke-18" stroke="#172429" stroke-width="2" points="414.7706 193.2048 414.7706 146.0688 446.7166 114.1228 483.8996 114.1228"></polyline>
            <line x1="467.1417" y1="89.5075" x2="548.8387" y2="89.5075" id="Stroke-19" stroke="#172429" stroke-width="2"></line>
            <polyline id="Stroke-20" stroke="#172429" stroke-width="2" points="430.4835 81.1286 458.2395 53.3716 496.4685 53.3716"></polyline>
            <line x1="358.211" y1="271.7634" x2="389.11" y2="240.8654" id="Stroke-21" stroke="#172429" stroke-width="2"></line>
            <polyline id="Stroke-22" stroke="#172429" stroke-width="2" points="483.8995 229.8649 523.7025 190.0629 589.6875 190.0629 628.4425 151.3069"></polyline>
            <polyline id="Stroke-23" stroke="#172429" stroke-width="2" points="507.9913 290.6169 437.8133 290.6169 400.1063 328.3259"></polyline>
            <g id="Group-277" transform="translate(0.000000, 0.508000)">
                <path d="M143.4942,24.0581 C145.8072,24.0581 147.6822,22.1831 147.6822,19.8691 C147.6822,17.5541 145.8072,15.6781 143.4942,15.6781 C141.1812,15.6781 139.3052,17.5541 139.3052,19.8691 C139.3052,22.1831 141.1812,24.0581 143.4942,24.0581" id="Fill-24" fill="#172429"></path>
                <path d="M217.8604,48.1499 C220.1734,48.1499 222.0494,46.2739 222.0494,43.9609 C222.0494,41.6459 220.1734,39.7699 217.8604,39.7699 C215.5464,39.7699 213.6704,41.6459 213.6704,43.9609 C213.6704,46.2739 215.5464,48.1499 217.8604,48.1499" id="Fill-26" fill="#172429"></path>
                <path d="M256.0889,10.9653 C258.4029,10.9653 260.2789,9.0903 260.2789,6.7773 C260.2789,4.4623 258.4029,2.5863 256.0889,2.5863 C253.7759,2.5863 251.9009,4.4623 251.9009,6.7773 C251.9009,9.0903 253.7759,10.9653 256.0889,10.9653" id="Fill-28" fill="#172429"></path>
                <path d="M248.2344,68.0513 C250.5474,68.0513 252.4224,66.1753 252.4224,63.8623 C252.4224,61.5473 250.5474,59.6723 248.2344,59.6723 C245.9214,59.6723 244.0444,61.5473 244.0444,63.8623 C244.0444,66.1753 245.9214,68.0513 248.2344,68.0513" id="Fill-30" fill="#172429"></path>
                <path d="M310.5547,128.2788 C312.8687,128.2788 314.7437,126.4038 314.7437,124.0898 C314.7437,121.7748 312.8687,119.8998 310.5547,119.8998 C308.2417,119.8998 306.3657,121.7748 306.3657,124.0898 C306.3657,126.4038 308.2417,128.2788 310.5547,128.2788" id="Fill-32" fill="#172429"></path>
                <path d="M270.2305,146.6099 C272.5435,146.6099 274.4185,144.7339 274.4185,142.4209 C274.4185,140.1059 272.5435,138.2309 270.2305,138.2309 C267.9165,138.2309 266.0405,140.1059 266.0405,142.4209 C266.0405,144.7339 267.9165,146.6099 270.2305,146.6099" id="Fill-34" fill="#172429"></path>
                <path d="M370.7794,24.0581 C373.0934,24.0581 374.9684,22.1831 374.9684,19.8691 C374.9684,17.5541 373.0934,15.6781 370.7794,15.6781 C368.4664,15.6781 366.5924,17.5541 366.5924,19.8691 C366.5924,22.1831 368.4664,24.0581 370.7794,24.0581" id="Fill-36" fill="#172429"></path>
                <path d="M400.1065,48.1499 C402.4205,48.1499 404.2965,46.2739 404.2965,43.9609 C404.2965,41.6459 402.4205,39.7699 400.1065,39.7699 C397.7935,39.7699 395.9185,41.6459 395.9185,43.9609 C395.9185,46.2739 397.7935,48.1499 400.1065,48.1499" id="Fill-38" fill="#172429"></path>
                <path d="M430.4835,84.8101 C432.7965,84.8101 434.6715,82.9351 434.6715,80.6221 C434.6715,78.3071 432.7965,76.4311 430.4835,76.4311 C428.1695,76.4311 426.2935,78.3071 426.2935,80.6221 C426.2935,82.9351 428.1695,84.8101 430.4835,84.8101" id="Fill-40" fill="#172429"></path>
                <path d="M496.4698,56.5288 C498.7828,56.5288 500.6568,54.6538 500.6568,52.3398 C500.6568,50.0248 498.7828,48.1498 496.4698,48.1498 C494.1558,48.1498 492.2798,50.0248 492.2798,52.3398 C492.2798,54.6538 494.1558,56.5288 496.4698,56.5288" id="Fill-42" fill="#172429"></path>
                <path d="M548.8389,93.1899 C551.1519,93.1899 553.0269,91.3139 553.0269,88.9999 C553.0269,86.6859 551.1519,84.8099 548.8389,84.8099 C546.5259,84.8099 544.6499,86.6859 544.6499,88.9999 C544.6499,91.3139 546.5259,93.1899 548.8389,93.1899" id="Fill-44" fill="#172429"></path>
                <path d="M469.2374,93.1899 C471.5504,93.1899 473.4254,91.3139 473.4254,88.9999 C473.4254,86.6859 471.5504,84.8099 469.2374,84.8099 C466.9234,84.8099 465.0474,86.6859 465.0474,88.9999 C465.0474,91.3139 466.9234,93.1899 469.2374,93.1899" id="Fill-46" fill="#172429"></path>
                <path d="M483.8995,117.2808 C486.2135,117.2808 488.0885,115.4048 488.0885,113.0918 C488.0885,110.7768 486.2135,108.9008 483.8995,108.9008 C481.5865,108.9008 479.7105,110.7768 479.7105,113.0918 C479.7105,115.4048 481.5865,117.2808 483.8995,117.2808" id="Fill-48" fill="#172429"></path>
                <path d="M414.7706,196.8862 C417.0836,196.8862 418.9606,195.0112 418.9606,192.6972 C418.9606,190.3822 417.0836,188.5072 414.7706,188.5072 C412.4576,188.5072 410.5826,190.3822 410.5826,192.6972 C410.5826,195.0112 412.4576,196.8862 414.7706,196.8862" id="Fill-50" fill="#172429"></path>
                <path d="M451.4307,169.6538 C453.7437,169.6538 455.6197,167.7788 455.6197,165.4648 C455.6197,163.1488 453.7437,161.2728 451.4307,161.2728 C449.1167,161.2728 447.2417,163.1488 447.2417,165.4648 C447.2417,167.7788 449.1167,169.6538 451.4307,169.6538" id="Fill-52" fill="#172429"></path>
                <path d="M584.4503,102.6167 C586.7633,102.6167 588.6393,100.7417 588.6393,98.4277 C588.6393,96.1137 586.7633,94.2377 584.4503,94.2377 C582.1373,94.2377 580.2613,96.1137 580.2613,98.4277 C580.2613,100.7417 582.1373,102.6167 584.4503,102.6167" id="Fill-54" fill="#172429"></path>
                <path d="M628.4424,154.9878 C630.7554,154.9878 632.6294,153.1128 632.6294,150.7998 C632.6294,148.4848 630.7554,146.6098 628.4424,146.6098 C626.1284,146.6098 624.2524,148.4848 624.2524,150.7998 C624.2524,153.1128 626.1284,154.9878 628.4424,154.9878" id="Fill-56" fill="#172429"></path>
                <path d="M484.9483,232.5005 C487.2613,232.5005 489.1353,230.6235 489.1353,228.3105 C489.1353,225.9965 487.2613,224.1205 484.9483,224.1205 C482.6343,224.1205 480.7583,225.9965 480.7583,228.3105 C480.7583,230.6235 482.6343,232.5005 484.9483,232.5005" id="Fill-58" fill="#172429"></path>
                <path d="M489.1358,178.0327 C491.4498,178.0327 493.3248,176.1557 493.3248,173.8427 C493.3248,171.5277 491.4498,169.6527 489.1358,169.6527 C486.8228,169.6527 484.9488,171.5277 484.9488,173.8427 C484.9488,176.1557 486.8228,178.0327 489.1358,178.0327" id="Fill-60" fill="#172429"></path>
                <path d="M593.6143,232.5005 C595.9283,232.5005 597.8033,230.6235 597.8033,228.3105 C597.8033,225.9965 595.9283,224.1205 593.6143,224.1205 C591.3013,224.1205 589.4273,225.9965 589.4273,228.3105 C589.4273,230.6235 591.3013,232.5005 593.6143,232.5005" id="Fill-62" fill="#172429"></path>
                <path d="M389.6339,244.022 C391.9469,244.022 393.8229,242.147 393.8229,239.833 C393.8229,237.518 391.9469,235.642 389.6339,235.642 C387.3209,235.642 385.4449,237.518 385.4449,239.833 C385.4449,242.147 387.3209,244.022 389.6339,244.022" id="Fill-64" fill="#172429"></path>
                <path d="M400.1065,332.0073 C402.4205,332.0073 404.2965,330.1323 404.2965,327.8183 C404.2965,325.5033 402.4205,323.6263 400.1065,323.6263 C397.7935,323.6263 395.9185,325.5033 395.9185,327.8183 C395.9185,330.1323 397.7935,332.0073 400.1065,332.0073" id="Fill-66" fill="#172429"></path>
                <path d="M507.9913,294.2983 C510.3043,294.2983 512.1793,292.4233 512.1793,290.1103 C512.1793,287.7953 510.3043,285.9183 507.9913,285.9183 C505.6773,285.9183 503.8013,287.7953 503.8013,290.1103 C503.8013,292.4233 505.6773,294.2983 507.9913,294.2983" id="Fill-68" fill="#172429"></path>
                <path d="M358.211,275.4448 C360.524,275.4448 362.4,273.5698 362.4,271.2558 C362.4,268.9418 360.524,267.0648 358.211,267.0648 C355.898,267.0648 354.023,268.9418 354.023,271.2558 C354.023,273.5698 355.898,275.4448 358.211,275.4448" id="Fill-70" fill="#172429"></path>
                <path d="M330.9786,260.7808 C333.2916,260.7808 335.1676,258.9048 335.1676,256.5918 C335.1676,254.2768 333.2916,252.4018 330.9786,252.4018 C328.6656,252.4018 326.7906,254.2768 326.7906,256.5918 C326.7906,258.9048 328.6656,260.7808 330.9786,260.7808" id="Fill-72" fill="#172429"></path>
                <path d="M333.0733,233.5474 C335.3863,233.5474 337.2633,231.6704 337.2633,229.3574 C337.2633,227.0434 335.3863,225.1674 333.0733,225.1674 C330.7603,225.1674 328.8853,227.0434 328.8853,229.3574 C328.8853,231.6704 330.7603,233.5474 333.0733,233.5474" id="Fill-74" fill="#172429"></path>
                <path d="M248.2344,126.7085 C250.5474,126.7085 252.4224,124.8315 252.4224,122.5185 C252.4224,120.2035 250.5474,118.3285 248.2344,118.3285 C245.9214,118.3285 244.0444,120.2035 244.0444,122.5185 C244.0444,124.8315 245.9214,126.7085 248.2344,126.7085" id="Fill-76" fill="#172429"></path>
                <path d="M93.2188,68.0513 C95.5318,68.0513 97.4088,66.1753 97.4088,63.8623 C97.4088,61.5473 95.5318,59.6723 93.2188,59.6723 C90.9058,59.6723 89.0298,61.5473 89.0298,63.8623 C89.0298,66.1753 90.9058,68.0513 93.2188,68.0513" id="Fill-78" fill="#172429"></path>
                <path d="M216.8116,147.6577 C219.1246,147.6577 221.0016,145.7807 221.0016,143.4677 C221.0016,141.1527 219.1246,139.2777 216.8116,139.2777 C214.4986,139.2777 212.6226,141.1527 212.6226,143.4677 C212.6226,145.7807 214.4986,147.6577 216.8116,147.6577" id="Fill-80" fill="#172429"></path>
                <path d="M60.7491,121.4702 C63.0631,121.4702 64.9381,119.5952 64.9381,117.2822 C64.9381,114.9662 63.0631,113.0912 60.7491,113.0912 C58.4361,113.0912 56.5611,114.9662 56.5611,117.2822 C56.5611,119.5952 58.4361,121.4702 60.7491,121.4702" id="Fill-82" fill="#172429"></path>
                <path d="M19.9005,162.3208 C22.2145,162.3208 24.0895,160.4458 24.0895,158.1328 C24.0895,155.8178 22.2145,153.9418 19.9005,153.9418 C17.5875,153.9418 15.7125,155.8178 15.7125,158.1328 C15.7125,160.4458 17.5875,162.3208 19.9005,162.3208" id="Fill-84" fill="#172429"></path>
                <path d="M128.8301,217.8354 C131.1441,217.8354 133.0191,215.9604 133.0191,213.6464 C133.0191,211.3324 131.1441,209.4564 128.8301,209.4564 C126.5171,209.4564 124.6421,211.3324 124.6421,213.6464 C124.6421,215.9604 126.5171,217.8354 128.8301,217.8354" id="Fill-86" fill="#172429"></path>
                <path d="M145.5889,192.6978 C147.9019,192.6978 149.7769,190.8218 149.7769,188.5078 C149.7769,186.1938 147.9019,184.3178 145.5889,184.3178 C143.2749,184.3178 141.3999,186.1938 141.3999,188.5078 C141.3999,190.8218 143.2749,192.6978 145.5889,192.6978" id="Fill-88" fill="#172429"></path>
                <path d="M197.959,192.6978 C200.272,192.6978 202.147,190.8218 202.147,188.5078 C202.147,186.1938 200.272,184.3178 197.959,184.3178 C195.645,184.3178 193.77,186.1938 193.77,188.5078 C193.77,190.8218 195.645,192.6978 197.959,192.6978" id="Fill-90" fill="#172429"></path>
                <path d="M4.1905,233.5474 C6.5035,233.5474 8.3785,231.6704 8.3785,229.3574 C8.3785,227.0434 6.5035,225.1674 4.1905,225.1674 C1.8765,225.1674 0.0005,227.0434 0.0005,229.3574 C0.0005,231.6704 1.8765,233.5474 4.1905,233.5474" id="Fill-92" fill="#172429"></path>
                <path d="M29.3272,308.9634 C31.6402,308.9634 33.5162,307.0874 33.5162,304.7734 C33.5162,302.4594 31.6402,300.5844 29.3272,300.5844 C27.0142,300.5844 25.1382,302.4594 25.1382,304.7734 C25.1382,307.0874 27.0142,308.9634 29.3272,308.9634" id="Fill-94" fill="#172429"></path>
                <path d="M111.0245,293.2515 C113.3375,293.2515 115.2135,291.3765 115.2135,289.0635 C115.2135,286.7485 113.3375,284.8715 111.0245,284.8715 C108.7115,284.8715 106.8355,286.7485 106.8355,289.0635 C106.8355,291.3765 108.7115,293.2515 111.0245,293.2515" id="Fill-96" fill="#172429"></path>
                <path d="M134.0674,315.2476 C136.3804,315.2476 138.2564,313.3726 138.2564,311.0596 C138.2564,308.7446 136.3804,306.8696 134.0674,306.8696 C131.7544,306.8696 129.8784,308.7446 129.8784,311.0596 C129.8784,313.3726 131.7544,315.2476 134.0674,315.2476" id="Fill-98" fill="#172429"></path>
                <path d="M244.045,292.2046 C246.359,292.2046 248.234,290.3296 248.234,288.0156 C248.234,285.7006 246.359,283.8246 244.045,283.8246 C241.732,283.8246 239.856,285.7006 239.856,288.0156 C239.856,290.3296 241.732,292.2046 244.045,292.2046" id="Fill-100" fill="#172429"></path>
                <path d="M133.0196,258.6851 C135.3336,258.6851 137.2086,256.8101 137.2086,254.4971 C137.2086,252.1821 135.3336,250.3071 133.0196,250.3071 C130.7066,250.3071 128.8316,252.1821 128.8316,254.4971 C128.8316,256.8101 130.7066,258.6851 133.0196,258.6851" id="Fill-102" fill="#172429"></path>
                <polyline id="Stroke-104" stroke="#4AAFFF" stroke-width="2" points="44.5147 246.1167 81.1737 246.1167 93.7427 234.0717 149.2547 234.0717"></polyline>
                <polyline id="Stroke-106" stroke="#4AAFFF" stroke-width="2" points="60.2256 184.3179 104.2166 184.3179 123.5936 204.2189 162.3476 204.2189 183.8196 234.0709"></polyline>
                <polyline id="Stroke-108" stroke="#4AAFFF" stroke-width="2" points="193.2462 205.7905 227.8092 205.7905 255.0422 233.0235 255.0422 260.7815"></polyline>
                <polyline id="Stroke-110" stroke="#4AAFFF" stroke-width="2" points="72.794 125.6606 98.98 125.6606 115.738 142.9436 137.732 142.9436 165.49 170.7006 191.675 170.7006"></polyline>
                <polyline id="Stroke-112" stroke="#4AAFFF" stroke-width="3" points="173.3448 152.3706 197.4358 176.4626 245.6158 176.4626 278.6088 209.4566 278.6088 564.0166 253.7328 588.8926 224.6678 588.8926 204.1168 609.4546"></polyline>
                <polyline id="Stroke-114" stroke="#4AAFFF" stroke-width="2" points="176.4864 625.8149 224.6684 625.8149 240.3794 610.1029 267.6104 610.1029 285.4184 592.2959"></polyline>
                <line x1="237.2364" y1="644.6694" x2="255.5654" y2="626.3394" id="Stroke-116" stroke="#4AAFFF" stroke-width="2"></line>
                <polyline id="Stroke-118" stroke="#4AAFFF" stroke-width="2" points="170.2032 599.6294 195.3412 574.4904 268.1352 574.4904"></polyline>
                <polyline id="Stroke-120" stroke="#4AAFFF" stroke-width="3" points="90.6006 575.5376 142.9706 575.5376 157.1106 561.3976 183.8196 561.3976 200.3156 544.9006 255.0416 544.9006 255.0416 507.9776 255.0416 259.2106 230.4276 234.5946 184.3426 234.5946 163.3946 255.5436 118.3566 255.5436 100.5506 273.3496 30.3736 273.3496"></polyline>
                <polyline id="Stroke-122" stroke="#4AAFFF" stroke-width="2" points="285.4171 661.4282 285.4171 641.5272 297.4621 629.4822 297.4621 609.0572"></polyline>
                <polyline id="Stroke-124" stroke="#4AAFFF" stroke-width="2" points="313.6964 626.8638 330.4564 643.6218 365.0194 643.6218"></polyline>
                <polyline id="Stroke-126" stroke="#4AAFFF" stroke-width="3" points="399.5831 643.6216 374.9701 619.0076 339.8831 619.0076 305.5791 584.7026 305.5791 184.8426 278.7451 158.0056 278.7451 110.4736"></polyline>
                <polyline id="Stroke-128" stroke="#4AAFFF" stroke-width="2" points="93.7422 92.1421 132.4972 92.1421 153.4442 112.5671 183.8192 112.5671 246.1392 174.8911"></polyline>
                <polyline id="Stroke-130" stroke="#4AAFFF" stroke-width="2" points="132.4962 47.6265 202.6722 47.6265 235.1422 80.0975 235.1422 114.6625 262.3742 141.8965 262.3742 193.1995"></polyline>
                <line x1="261.8506" y1="47.6265" x2="261.8506" y2="97.9025" id="Stroke-132" stroke="#4AAFFF" stroke-width="2"></line>
                <polyline id="Stroke-134" stroke="#4AAFFF" stroke-width="2" points="281.7501 5.2046 308.4591 31.9146 308.4591 86.9056 334.7811 111.3946"></polyline>
                <polyline id="Stroke-136" stroke="#4AAFFF" stroke-width="2" points="362.4005 13.5835 334.6435 42.3895 334.6435 126.1855 290.9055 169.9265"></polyline>
                <polyline id="Stroke-138" stroke="#4AAFFF" stroke-width="2" points="330.4551 184.8413 330.4551 156.5613 361.3521 125.6603 361.3521 103.1413 386.2281 78.2643 386.2281 32.9613"></polyline>
                <polyline id="Stroke-140" stroke="#4AAFFF" stroke-width="2" points="409.0108 66.48 434.1488 41.341 466.6158 41.341"></polyline>
                <polyline id="Stroke-142" stroke="#FFA729" stroke-width="3" points="510.085 47.1021 490.707 66.4801 440.433 66.4801 367.114 137.7061 367.114 171.7481"></polyline>
                <polyline id="Stroke-144" stroke="#FFA729" stroke-width="3" points="383.3487 171.7476 448.8117 106.2826 510.6097 106.2826 540.9837 75.9066"></polyline>
                <polyline id="Stroke-146" stroke="#FFA729" stroke-width="3" points="462.4288 137.7065 428.3878 171.7485 367.1148 171.7485 328.6218 210.2415 328.6218 565.0635 355.7298 592.1705 379.6838 592.1705 391.2678 603.7565"></polyline>
                <line x1="421.5792" y1="609.0571" x2="446.1932" y2="633.6701" id="Stroke-148" stroke="#4AAFFF" stroke-width="2"></line>
                <polyline id="Stroke-150" stroke="#4AAFFF" stroke-width="2" points="380.7315 564.0161 410.5825 593.8681 456.1435 593.8681 473.1645 610.8891"></polyline>
                <polyline id="Stroke-152" stroke="#4AAFFF" stroke-width="3" points="510.6085 564.0161 431.0055 564.0161 411.1045 544.1151 352.4515 544.1151 352.4515 256.0671 399.5845 208.9321 466.6175 208.9321 492.2785 183.2691 546.2185 183.2691 573.1895 210.2411 613.2545 210.2411"></polyline>
                <polyline id="Stroke-154" stroke="#4AAFFF" stroke-width="2" points="352.4503 301.1069 419.4843 234.0719 474.4733 234.0719"></polyline>
                <polyline id="Stroke-156" stroke="#FFA729" stroke-width="3" points="457.1924 183.7944 488.6124 152.3704 540.9824 152.3704 576.0714 117.2814"></polyline>
                <line x1="350.3565" y1="218.3589" x2="376.0175" y2="192.6979" id="Stroke-158" stroke="#4AAFFF" stroke-width="2"></line>
                <path d="M31.4219,277.5405 C33.7349,277.5405 35.6109,275.6645 35.6109,273.3515 C35.6109,271.0365 33.7349,269.1615 31.4219,269.1615 C29.1089,269.1615 27.2329,271.0365 27.2329,273.3515 C27.2329,275.6645 29.1089,277.5405 31.4219,277.5405" id="Fill-160" fill="#4AAFFF"></path>
                <path d="M45.0381,250.3071 C47.3521,250.3071 49.2271,248.4301 49.2271,246.1171 C49.2271,243.8031 47.3521,241.9271 45.0381,241.9271 C42.7251,241.9271 40.8491,243.8031 40.8491,246.1171 C40.8491,248.4301 42.7251,250.3071 45.0381,250.3071" id="Fill-162" fill="#4AAFFF"></path>
                <path d="M149.7784,237.7368 C152.0914,237.7368 153.9674,235.8618 153.9674,233.5488 C153.9674,231.2338 152.0914,229.3568 149.7784,229.3568 C147.4644,229.3568 145.5894,231.2338 145.5894,233.5488 C145.5894,235.8618 147.4644,237.7368 149.7784,237.7368" id="Fill-164" fill="#4AAFFF"></path>
                <path d="M184.3428,239.8315 C186.6558,239.8315 188.5308,237.9565 188.5308,235.6425 C188.5308,233.3285 186.6558,231.4535 184.3428,231.4535 C182.0288,231.4535 180.1538,233.3285 180.1538,235.6425 C180.1538,237.9565 182.0288,239.8315 184.3428,239.8315" id="Fill-166" fill="#4AAFFF"></path>
                <path d="M192.7227,209.4556 C195.0357,209.4556 196.9107,207.5806 196.9107,205.2676 C196.9107,202.9526 195.0357,201.0756 192.7227,201.0756 C190.4087,201.0756 188.5327,202.9526 188.5327,205.2676 C188.5327,207.5806 190.4087,209.4556 192.7227,209.4556" id="Fill-168" fill="#4AAFFF"></path>
                <path d="M254.5186,261.8286 C256.8316,261.8286 258.7076,259.9526 258.7076,257.6386 C258.7076,255.3246 256.8316,253.4486 254.5186,253.4486 C252.2046,253.4486 250.3296,255.3246 250.3296,257.6386 C250.3296,259.9526 252.2046,261.8286 254.5186,261.8286" id="Fill-170" fill="#4AAFFF"></path>
                <path d="M60.7491,188.5073 C63.0631,188.5073 64.9381,186.6323 64.9381,184.3183 C64.9381,182.0033 63.0631,180.1273 60.7491,180.1273 C58.4361,180.1273 56.5611,182.0033 56.5611,184.3183 C56.5611,186.6323 58.4361,188.5073 60.7491,188.5073" id="Fill-172" fill="#4AAFFF"></path>
                <path d="M73.3184,129.8501 C75.6314,129.8501 77.5064,127.9751 77.5064,125.6621 C77.5064,123.3471 75.6314,121.4711 73.3184,121.4711 C71.0044,121.4711 69.1284,123.3471 69.1284,125.6621 C69.1284,127.9751 71.0044,129.8501 73.3184,129.8501" id="Fill-174" fill="#4AAFFF"></path>
                <path d="M172.8214,156.0366 C175.1344,156.0366 177.0094,154.1616 177.0094,151.8476 C177.0094,149.5326 175.1344,147.6566 172.8214,147.6566 C170.5074,147.6566 168.6324,149.5326 168.6324,151.8476 C168.6324,154.1616 170.5074,156.0366 172.8214,156.0366" id="Fill-176" fill="#4AAFFF"></path>
                <path d="M93.2188,96.3315 C95.5318,96.3315 97.4088,94.4565 97.4088,92.1435 C97.4088,89.8285 95.5318,87.9525 93.2188,87.9525 C90.9058,87.9525 89.0298,89.8285 89.0298,92.1435 C89.0298,94.4565 90.9058,96.3315 93.2188,96.3315" id="Fill-178" fill="#4AAFFF"></path>
                <path d="M133.0196,51.2925 C135.3336,51.2925 137.2086,49.4155 137.2086,47.1035 C137.2086,44.7885 135.3336,42.9125 133.0196,42.9125 C130.7066,42.9125 128.8316,44.7885 128.8316,47.1035 C128.8316,49.4155 130.7066,51.2925 133.0196,51.2925" id="Fill-180" fill="#4AAFFF"></path>
                <path d="M261.8506,146.6099 C264.1636,146.6099 266.0386,144.7339 266.0386,142.4209 C266.0386,140.1059 264.1636,138.2309 261.8506,138.2309 C259.5376,138.2309 257.6616,140.1059 257.6616,142.4209 C257.6616,144.7339 259.5376,146.6099 261.8506,146.6099" id="Fill-182" fill="#4AAFFF"></path>
                <path d="M261.8506,101.5698 C264.1636,101.5698 266.0386,99.6948 266.0386,97.3798 C266.0386,95.0658 264.1636,93.1898 261.8506,93.1898 C259.5376,93.1898 257.6616,95.0658 257.6616,97.3798 C257.6616,99.6948 259.5376,101.5698 261.8506,101.5698" id="Fill-184" fill="#4AAFFF"></path>
                <path d="M278.6085,114.1392 C280.9225,114.1392 282.7975,112.2632 282.7975,109.9492 C282.7975,107.6342 280.9225,105.7592 278.6085,105.7592 C276.2955,105.7592 274.4205,107.6342 274.4205,109.9492 C274.4205,112.2632 276.2955,114.1392 278.6085,114.1392" id="Fill-186" fill="#4AAFFF"></path>
                <path d="M261.8506,51.2925 C264.1636,51.2925 266.0386,49.4155 266.0386,47.1035 C266.0386,44.7885 264.1636,42.9125 261.8506,42.9125 C259.5376,42.9125 257.6616,44.7885 257.6616,47.1035 C257.6616,49.4155 259.5376,51.2925 261.8506,51.2925" id="Fill-188" fill="#4AAFFF"></path>
                <path d="M228.3331,76.4312 C230.6461,76.4312 232.5231,74.5552 232.5231,72.2412 C232.5231,69.9272 230.6461,68.0522 228.3331,68.0522 C226.0201,68.0522 224.1451,69.9272 224.1451,72.2412 C224.1451,74.5552 226.0201,76.4312 228.3331,76.4312" id="Fill-190" fill="#4AAFFF"></path>
                <path d="M162.3467,29.2964 C164.6607,29.2964 166.5367,27.4194 166.5367,25.1064 C166.5367,22.7914 164.6607,20.9154 162.3467,20.9154 C160.0337,20.9154 158.1587,22.7914 158.1587,25.1064 C158.1587,27.4194 160.0337,29.2964 162.3467,29.2964" id="Fill-192" fill="#4AAFFF"></path>
                <g id="Group-196" transform="translate(277.000000, 0.000000)">
                    <mask id="mask-2" fill="white">
                        <use xlink:href="#path-1"></use>
                    </mask>
                    <g id="Clip-195"></g>
                    <path d="M4.2276,8.8706 C6.5406,8.8706 8.4166,6.9946 8.4166,4.6816 C8.4166,2.3666 6.5406,0.4916 4.2276,0.4916 C1.9136,0.4916 0.0386,2.3666 0.0386,4.6816 C0.0386,6.9946 1.9136,8.8706 4.2276,8.8706" id="Fill-194" fill="#4AAFFF" mask="url(#mask-2)"></path>
                </g>
                <path d="M334.1202,115.186 C336.4342,115.186 338.3102,113.311 338.3102,110.998 C338.3102,108.683 336.4342,106.807 334.1202,106.807 C331.8072,106.807 329.9332,108.683 329.9332,110.998 C329.9332,113.311 331.8072,115.186 334.1202,115.186" id="Fill-197" fill="#4AAFFF"></path>
                <path d="M362.4005,17.7739 C364.7135,17.7739 366.5905,15.8979 366.5905,13.5839 C366.5905,11.2699 364.7135,9.3949 362.4005,9.3949 C360.0875,9.3949 358.2125,11.2699 358.2125,13.5839 C358.2125,15.8979 360.0875,17.7739 362.4005,17.7739" id="Fill-199" fill="#4AAFFF"></path>
                <path d="M329.9317,189.5542 C332.2447,189.5542 334.1197,187.6792 334.1197,185.3662 C334.1197,183.0512 332.2447,181.1742 329.9317,181.1742 C327.6187,181.1742 325.7437,183.0512 325.7437,185.3662 C325.7437,187.6792 327.6187,189.5542 329.9317,189.5542" id="Fill-201" fill="#4AAFFF"></path>
                <path d="M386.4913,34.5327 C388.8043,34.5327 390.6803,32.6577 390.6803,30.3437 C390.6803,28.0297 388.8043,26.1537 386.4913,26.1537 C384.1783,26.1537 382.3023,28.0297 382.3023,30.3437 C382.3023,32.6577 384.1783,34.5327 386.4913,34.5327" id="Fill-203" fill="#4AAFFF"></path>
                <path d="M409.5342,70.146 C411.8472,70.146 413.7222,68.27 413.7222,65.957 C413.7222,63.643 411.8472,61.767 409.5342,61.767 C407.2212,61.767 405.3462,63.643 405.3462,65.957 C405.3462,68.27 407.2212,70.146 409.5342,70.146" id="Fill-205" fill="#4AAFFF"></path>
                <path d="M467.1417,45.0073 C469.4547,45.0073 471.3307,43.1313 471.3307,40.8183 C471.3307,38.5033 469.4547,36.6283 467.1417,36.6283 C464.8277,36.6283 462.9527,38.5033 462.9527,40.8183 C462.9527,43.1313 464.8277,45.0073 467.1417,45.0073" id="Fill-207" fill="#4AAFFF"></path>
                <path d="M400.1065,213.646 C402.4205,213.646 404.2965,211.769 404.2965,209.457 C404.2965,207.142 402.4205,205.266 400.1065,205.266 C397.7935,205.266 395.9185,207.142 395.9185,209.457 C395.9185,211.769 397.7935,213.646 400.1065,213.646" id="Fill-209" fill="#4AAFFF"></path>
                <path d="M376.0176,196.8862 C378.3306,196.8862 380.2066,195.0112 380.2066,192.6972 C380.2066,190.3822 378.3306,188.5072 376.0176,188.5072 C373.7046,188.5072 371.8286,190.3822 371.8286,192.6972 C371.8286,195.0112 373.7046,196.8862 376.0176,196.8862" id="Fill-211" fill="#4AAFFF"></path>
                <path d="M462.9522,141.3726 C465.2652,141.3726 467.1402,139.4976 467.1402,137.1836 C467.1402,134.8686 465.2652,132.9936 462.9522,132.9936 C460.6382,132.9936 458.7632,134.8686 458.7632,137.1836 C458.7632,139.4976 460.6382,141.3726 462.9522,141.3726" id="Fill-213" fill="#FFA729"></path>
                <path d="M449.335,109.9487 C451.648,109.9487 453.524,108.0737 453.524,105.7597 C453.524,103.4447 451.648,101.5687 449.335,101.5687 C447.022,101.5687 445.147,103.4447 445.147,105.7597 C445.147,108.0737 447.022,109.9487 449.335,109.9487" id="Fill-215" fill="#FFA729"></path>
                <path d="M367.6378,175.939 C369.9518,175.939 371.8268,174.062 371.8268,171.749 C371.8268,169.434 369.9518,167.558 367.6378,167.558 C365.3248,167.558 363.4498,169.434 363.4498,171.749 C363.4498,174.062 365.3248,175.939 367.6378,175.939" id="Fill-217" fill="#FFA729"></path>
                <path d="M510.085,51.2925 C512.398,51.2925 514.273,49.4155 514.273,47.1035 C514.273,44.7885 512.398,42.9125 510.085,42.9125 C507.772,42.9125 505.896,44.7885 505.896,47.1035 C505.896,49.4155 507.772,51.2925 510.085,51.2925" id="Fill-219" fill="#FFA729"></path>
                <path d="M541.5069,79.5728 C543.8199,79.5728 545.6949,77.6968 545.6949,75.3838 C545.6949,73.0688 543.8199,71.1928 541.5069,71.1928 C539.1939,71.1928 537.3189,73.0688 537.3189,75.3838 C537.3189,77.6968 539.1939,79.5728 541.5069,79.5728" id="Fill-221" fill="#FFA729"></path>
                <path d="M576.0714,121.4702 C578.3844,121.4702 580.2594,119.5952 580.2594,117.2822 C580.2594,114.9662 578.3844,113.0912 576.0714,113.0912 C573.7584,113.0912 571.8824,114.9662 571.8824,117.2822 C571.8824,119.5952 573.7584,121.4702 576.0714,121.4702" id="Fill-223" fill="#FFA729"></path>
                <path d="M458.7628,188.5073 C461.0758,188.5073 462.9508,186.6323 462.9508,184.3183 C462.9508,182.0033 461.0758,180.1273 458.7628,180.1273 C456.4498,180.1273 454.5738,182.0033 454.5738,184.3183 C454.5738,186.6323 456.4498,188.5073 458.7628,188.5073" id="Fill-225" fill="#FFA729"></path>
                <path d="M390.6807,607.4858 C392.9947,607.4858 394.8697,605.6098 394.8697,603.2958 C394.8697,600.9808 392.9947,599.1058 390.6807,599.1058 C388.3677,599.1058 386.4917,600.9808 386.4917,603.2958 C386.4917,605.6098 388.3677,607.4858 390.6807,607.4858" id="Fill-227" fill="#FFA729"></path>
                <path d="M474.4737,239.8315 C476.7867,239.8315 478.6617,237.9565 478.6617,235.6425 C478.6617,233.3285 476.7867,231.4535 474.4737,231.4535 C472.1607,231.4535 470.2847,233.3285 470.2847,235.6425 C470.2847,237.9565 472.1607,239.8315 474.4737,239.8315" id="Fill-229" fill="#4AAFFF"></path>
                <path d="M352.9747,304.7729 C355.2877,304.7729 357.1627,302.8979 357.1627,300.5839 C357.1627,298.2699 355.2877,296.3939 352.9747,296.3939 C350.6617,296.3939 348.7857,298.2699 348.7857,300.5839 C348.7857,302.8979 350.6617,304.7729 352.9747,304.7729" id="Fill-231" fill="#4AAFFF"></path>
                <path d="M510.085,568.729 C512.398,568.729 514.273,566.854 514.273,564.54 C514.273,562.226 512.398,560.351 510.085,560.351 C507.772,560.351 505.896,562.226 505.896,564.54 C505.896,566.854 507.772,568.729 510.085,568.729" id="Fill-233" fill="#4AAFFF"></path>
                <path d="M380.2071,567.6821 C382.5211,567.6821 384.3961,565.8071 384.3961,563.4931 C384.3961,561.1791 382.5211,559.3041 380.2071,559.3041 C377.8941,559.3041 376.0191,561.1791 376.0191,563.4931 C376.0191,565.8071 377.8941,567.6821 380.2071,567.6821" id="Fill-235" fill="#4AAFFF"></path>
                <path d="M473.4268,614.8159 C475.7398,614.8159 477.6138,612.9409 477.6138,610.6279 C477.6138,608.3129 475.7398,606.4369 473.4268,606.4369 C471.1128,606.4369 469.2378,608.3129 469.2378,610.6279 C469.2378,612.9409 471.1128,614.8159 473.4268,614.8159" id="Fill-237" fill="#4AAFFF"></path>
                <path d="M421.0557,612.7222 C423.3687,612.7222 425.2437,610.8472 425.2437,608.5332 C425.2437,606.2192 423.3687,604.3422 421.0557,604.3422 C418.7427,604.3422 416.8677,606.2192 416.8677,608.5332 C416.8677,610.8472 418.7427,612.7222 421.0557,612.7222" id="Fill-239" fill="#4AAFFF"></path>
                <path d="M446.1944,637.8608 C448.5074,637.8608 450.3814,635.9848 450.3814,633.6718 C450.3814,631.3568 448.5074,629.4818 446.1944,629.4818 C443.8804,629.4818 442.0054,631.3568 442.0054,633.6718 C442.0054,635.9848 443.8804,637.8608 446.1944,637.8608" id="Fill-241" fill="#4AAFFF"></path>
                <path d="M399.0596,648.3354 C401.3726,648.3354 403.2496,646.4604 403.2496,644.1474 C403.2496,641.8314 401.3726,639.9554 399.0596,639.9554 C396.7466,639.9554 394.8716,641.8314 394.8716,644.1474 C394.8716,646.4604 396.7466,648.3354 399.0596,648.3354" id="Fill-243" fill="#4AAFFF"></path>
                <path d="M363.4483,648.3354 C365.7623,648.3354 367.6373,646.4604 367.6373,644.1474 C367.6373,641.8314 365.7623,639.9554 363.4483,639.9554 C361.1353,639.9554 359.2593,641.8314 359.2593,644.1474 C359.2593,646.4604 361.1353,648.3354 363.4483,648.3354" id="Fill-245" fill="#4AAFFF"></path>
                <path d="M313.1729,630.5288 C315.4869,630.5288 317.3619,628.6538 317.3619,626.3398 C317.3619,624.0258 315.4869,622.1488 313.1729,622.1488 C310.8599,622.1488 308.9839,624.0258 308.9839,626.3398 C308.9839,628.6538 310.8599,630.5288 313.1729,630.5288" id="Fill-247" fill="#4AAFFF"></path>
                <path d="M297.463,613.769 C299.776,613.769 301.651,611.894 301.651,609.581 C301.651,607.266 299.776,605.39 297.463,605.39 C295.149,605.39 293.273,607.266 293.273,609.581 C293.273,611.894 295.149,613.769 297.463,613.769" id="Fill-249" fill="#4AAFFF"></path>
                <path d="M284.8936,662.9995 C287.2076,662.9995 289.0826,661.1235 289.0826,658.8105 C289.0826,656.4955 287.2076,654.6205 284.8936,654.6205 C282.5806,654.6205 280.7046,656.4955 280.7046,658.8105 C280.7046,661.1235 282.5806,662.9995 284.8936,662.9995" id="Fill-251" fill="#4AAFFF"></path>
                <path d="M255.5655,630.5288 C257.8785,630.5288 259.7555,628.6538 259.7555,626.3398 C259.7555,624.0258 257.8785,622.1488 255.5655,622.1488 C253.2525,622.1488 251.3765,624.0258 251.3765,626.3398 C251.3765,628.6538 253.2525,630.5288 255.5655,630.5288" id="Fill-253" fill="#4AAFFF"></path>
                <path d="M235.6651,650.4302 C237.9791,650.4302 239.8541,648.5552 239.8541,646.2422 C239.8541,643.9272 237.9791,642.0502 235.6651,642.0502 C233.3521,642.0502 231.4771,643.9272 231.4771,646.2422 C231.4771,648.5552 233.3521,650.4302 235.6651,650.4302" id="Fill-255" fill="#4AAFFF"></path>
                <path d="M284.8936,595.9624 C287.2076,595.9624 289.0826,594.0874 289.0826,591.7734 C289.0826,589.4594 287.2076,587.5844 284.8936,587.5844 C282.5806,587.5844 280.7046,589.4594 280.7046,591.7734 C280.7046,594.0874 282.5806,595.9624 284.8936,595.9624" id="Fill-257" fill="#4AAFFF"></path>
                <path d="M175.963,629.4819 C178.276,629.4819 180.153,627.6069 180.153,625.2929 C180.153,622.9769 178.276,621.1009 175.963,621.1009 C173.65,621.1009 171.775,622.9769 171.775,625.2929 C171.775,627.6069 173.65,629.4819 175.963,629.4819" id="Fill-259" fill="#4AAFFF"></path>
                <path d="M204.2442,613.769 C206.5572,613.769 208.4322,611.894 208.4322,609.581 C208.4322,607.266 206.5572,605.39 204.2442,605.39 C201.9302,605.39 200.0542,607.266 200.0542,609.581 C200.0542,611.894 201.9302,613.769 204.2442,613.769" id="Fill-261" fill="#4AAFFF"></path>
                <path d="M171.2501,602.772 C173.5641,602.772 175.4391,600.897 175.4391,598.583 C175.4391,596.268 173.5641,594.391 171.2501,594.391 C168.9371,594.391 167.0621,596.268 167.0621,598.583 C167.0621,600.897 168.9371,602.772 171.2501,602.772" id="Fill-263" fill="#4AAFFF"></path>
                <path d="M91.1241,579.2046 C93.4371,579.2046 95.3121,577.3276 95.3121,575.0156 C95.3121,572.7006 93.4371,570.8246 91.1241,570.8246 C88.8101,570.8246 86.9351,572.7006 86.9351,575.0156 C86.9351,577.3276 88.8101,579.2046 91.1241,579.2046" id="Fill-265" fill="#4AAFFF"></path>
                <path d="M351.9268,222.0259 C354.2408,222.0259 356.1158,220.1499 356.1158,217.8359 C356.1158,215.5219 354.2408,213.6469 351.9268,213.6469 C349.6138,213.6469 347.7378,215.5219 347.7378,217.8359 C347.7378,220.1499 349.6138,222.0259 351.9268,222.0259" id="Fill-267" fill="#4AAFFF"></path>
                <path d="M612.7315,214.6938 C615.0445,214.6938 616.9195,212.8168 616.9195,210.5028 C616.9195,208.1898 615.0445,206.3138 612.7315,206.3138 C610.4175,206.3138 608.5415,208.1898 608.5415,210.5028 C608.5415,212.8168 610.4175,214.6938 612.7315,214.6938" id="Fill-269" fill="#4AAFFF"></path>
                <path d="M245.0928,179.0796 C247.4058,179.0796 249.2808,177.2046 249.2808,174.8916 C249.2808,172.5766 247.4058,170.7006 245.0928,170.7006 C242.7788,170.7006 240.9028,172.5766 240.9028,174.8916 C240.9028,177.2046 242.7788,179.0796 245.0928,179.0796" id="Fill-271" fill="#4AAFFF"></path>
                <path d="M165.4903,174.8911 C167.8033,174.8911 169.6783,173.0151 169.6783,170.7011 C169.6783,168.3871 167.8033,166.5111 165.4903,166.5111 C163.1763,166.5111 161.3003,168.3871 161.3003,170.7011 C161.3003,173.0151 163.1763,174.8911 165.4903,174.8911" id="Fill-273" fill="#4AAFFF"></path>
                <polyline id="Stroke-275" stroke="#4AAFFF" stroke-width="2" points="162.8702 25.106 207.9092 25.106 228.3332 44.484 228.3332 72.241"></polyline>
            </g>
        </g>
    </g>
</svg>